<svg xmlns="http://www.w3.org/2000/svg" viewBox="0 0 800 450" width="800" height="450">
  <defs>
    <linearGradient id="bg" x1="0%" y1="0%" x2="100%" y2="100%">
      <stop offset="0%" style="stop-color:#0f172a"/>
      <stop offset="100%" style="stop-color:#1e1b4b"/>
    </linearGradient>
    <linearGradient id="card1" x1="0%" y1="0%" x2="100%" y2="100%">
      <stop offset="0%" style="stop-color:#6366f1"/>
      <stop offset="100%" style="stop-color:#4f46e5"/>
    </linearGradient>
    <linearGradient id="correct" x1="0%" y1="0%" x2="100%" y2="0%">
      <stop offset="0%" style="stop-color:#10b981"/>
      <stop offset="100%" style="stop-color:#059669"/>
    </linearGradient>
  </defs>
  <rect width="800" height="450" fill="url(#bg)"/>
  <!-- Decorative circles -->
  <circle cx="700" cy="80" r="120" fill="#6366f1" opacity="0.06"/>
  <circle cx="100" cy="380" r="100" fill="#10b981" opacity="0.05"/>
  <!-- Top Bar -->
  <rect width="800" height="50" fill="#0f0f23"/>
  <text x="30" y="21" font-family="monospace" font-size="9" fill="#6366f188" letter-spacing="3">QUIZ PLATFORM</text>
  <text x="30" y="38" font-family="monospace" font-size="14" fill="#e0e7ff" font-weight="bold">React MCQ Quiz App</text>
  <!-- Progress/score bar -->
  <text x="460" y="24" font-family="monospace" font-size="9" fill="#6366f1">Question 4 of 10</text>
  <rect x="460" y="32" width="220" height="8" rx="4" fill="#1e1b4b"/>
  <rect x="460" y="32" width="88" height="8" rx="4" fill="url(#card1)"/>
  <text x="700" y="40" font-family="monospace" font-size="11" fill="#a5b4fc">⏱ 00:42</text>
  <rect x="730" y="12" width="55" height="28" rx="10" fill="#6366f1"/>
  <text x="757" y="31" font-family="monospace" font-size="12" fill="#fff" text-anchor="middle" font-weight="bold">30pts</text>

  <!-- Question Card -->
  <rect x="20" y="62" width="490" height="90" rx="14" fill="#1e1b4b" stroke="#6366f133" stroke-width="1.5"/>
  <rect x="20" y="62" width="490" height="8" rx="7" fill="url(#card1)"/>
  <text x="40" y="97" font-family="monospace" font-size="10" fill="#a5b4fc">Q4 · React Framework</text>
  <text x="40" y="117" font-family="monospace" font-size="13" fill="#e0e7ff" font-weight="bold">"Which hook allows side effects in React?"</text>
  <text x="40" y="140" font-family="monospace" font-size="8" fill="#6366f1">Single best answer · +10 pts for correct</text>

  <!-- Answer Options -->
  <!-- Option A - correct -->
  <rect x="20" y="162" width="490" height="46" rx="10" fill="#064e3b" stroke="#10b981" stroke-width="2"/>
  <circle cx="48" cy="185" r="12" fill="#10b981"/>
  <text x="48" y="190" font-family="monospace" font-size="11" fill="#fff" text-anchor="middle" font-weight="bold">A</text>
  <text x="72" y="190" font-family="monospace" font-size="12" fill="#d1fae5" font-weight="bold">useEffect()</text>
  <text x="460" y="190" font-family="monospace" font-size="18" fill="#10b981">✓</text>
  <!-- Option B -->
  <rect x="20" y="216" width="490" height="46" rx="10" fill="#1e1b4b" stroke="#374151" stroke-width="1"/>
  <circle cx="48" cy="239" r="12" fill="#374151"/>
  <text x="48" y="244" font-family="monospace" font-size="11" fill="#9ca3af" text-anchor="middle">B</text>
  <text x="72" y="244" font-family="monospace" font-size="12" fill="#9ca3af">useState()</text>
  <!-- Option C - wrong selected -->
  <rect x="20" y="270" width="490" height="46" rx="10" fill="#450a0a" stroke="#ef4444" stroke-width="2"/>
  <circle cx="48" cy="293" r="12" fill="#ef4444"/>
  <text x="48" y="298" font-family="monospace" font-size="11" fill="#fff" text-anchor="middle" font-weight="bold">C</text>
  <text x="72" y="298" font-family="monospace" font-size="12" fill="#fca5a5" font-weight="bold">useCallback()</text>
  <text x="460" y="298" font-family="monospace" font-size="18" fill="#ef4444">✗</text>
  <!-- Option D -->
  <rect x="20" y="324" width="490" height="46" rx="10" fill="#1e1b4b" stroke="#374151" stroke-width="1"/>
  <circle cx="48" cy="347" r="12" fill="#374151"/>
  <text x="48" y="352" font-family="monospace" font-size="11" fill="#9ca3af" text-anchor="middle">D</text>
  <text x="72" y="352" font-family="monospace" font-size="12" fill="#9ca3af">useContext()</text>

  <!-- Explanation -->
  <rect x="20" y="378" width="490" height="58" rx="10" fill="#1e3a2f" stroke="#10b98144" stroke-width="1"/>
  <text x="38" y="398" font-family="monospace" font-size="9" fill="#6ee7b7">💡 EXPLANATION</text>
  <text x="38" y="415" font-family="monospace" font-size="10" fill="#a7f3d0">useEffect() runs side effects after every render and handles</text>
  <text x="38" y="429" font-family="monospace" font-size="10" fill="#a7f3d0">data fetching, subscriptions, and DOM updates in React.</text>

  <!-- Right: Scoreboard -->
  <rect x="524" y="62" width="264" height="185" rx="14" fill="#1e1b4b" stroke="#6366f133" stroke-width="1.5"/>
  <text x="544" y="86" font-family="monospace" font-size="9" fill="#6366f188" letter-spacing="2">LEADERBOARD</text>
  <!-- Rank items -->
  <rect x="536" y="96" width="240" height="36" rx="8" fill="#312e81" stroke="#6366f155" stroke-width="1"/>
  <text x="552" y="119" font-family="monospace" font-size="20" fill="#fbbf24">🥇</text>
  <text x="582" y="112" font-family="monospace" font-size="10" fill="#e0e7ff" font-weight="bold">Priya Sharma</text>
  <text x="582" y="126" font-family="monospace" font-size="8" fill="#a5b4fc">Score: 90 · 8/8 correct</text>
  <text x="750" y="119" font-family="monospace" font-size="12" fill="#fbbf24" text-anchor="end">90</text>
  <rect x="536" y="138" width="240" height="32" rx="8" fill="#1e1b4b"/>
  <text x="552" y="159" font-family="monospace" font-size="18" fill="#9ca3af">🥈</text>
  <text x="582" y="152" font-family="monospace" font-size="10" fill="#c7d2fe">You (Urvashi)</text>
  <text x="582" y="165" font-family="monospace" font-size="8" fill="#6366f1">Score: 30 · Q4/10</text>
  <text x="750" y="159" font-family="monospace" font-size="12" fill="#a5b4fc" text-anchor="end">30</text>
  <rect x="536" y="176" width="240" height="32" rx="8" fill="#1e1b4b"/>
  <text x="552" y="197" font-family="monospace" font-size="18" fill="#9ca3af">🥉</text>
  <text x="582" y="190" font-family="monospace" font-size="10" fill="#c7d2fe">Dev Patel</text>
  <text x="582" y="203" font-family="monospace" font-size="8" fill="#6366f1">Score: 20 · Q4/10</text>
  <text x="750" y="197" font-family="monospace" font-size="12" fill="#818cf8" text-anchor="end">20</text>
  <rect x="536" y="214" width="240" height="28" rx="8" fill="#1e1b4b"/>
  <text x="552" y="233" font-family="monospace" font-size="10" fill="#9ca3af">4. Raj Mehta</text>
  <text x="750" y="233" font-family="monospace" font-size="12" fill="#6b7280" text-anchor="end">10</text>

  <!-- Stats panel -->
  <rect x="524" y="258" width="264" height="100" rx="14" fill="#1e1b4b" stroke="#6366f133" stroke-width="1.5"/>
  <text x="544" y="280" font-family="monospace" font-size="9" fill="#6366f188" letter-spacing="2">YOUR STATS</text>
  <text x="544" y="312" font-family="monospace" font-size="32" fill="#6366f1" font-weight="bold">3/4</text>
  <text x="544" y="328" font-family="monospace" font-size="8" fill="#a5b4fc">Correct answers</text>
  <text x="650" y="300" font-family="monospace" font-size="11" fill="#10b981">Streak: 🔥 2</text>
  <text x="650" y="320" font-family="monospace" font-size="11" fill="#fbbf24">Accuracy: 75%</text>
  <text x="650" y="340" font-family="monospace" font-size="11" fill="#a5b4fc">Avg time: 18s</text>

  <!-- Category pills -->
  <rect x="524" y="370" width="264" height="70" rx="14" fill="#1e1b4b" stroke="#6366f133" stroke-width="1.5"/>
  <text x="544" y="390" font-family="monospace" font-size="9" fill="#6366f188" letter-spacing="2">CATEGORIES</text>
  <rect x="536" y="400" width="66" height="20" rx="10" fill="#4f46e520" stroke="#6366f155" stroke-width="1"/>
  <text x="569" y="414" font-family="monospace" font-size="8" fill="#a5b4fc" text-anchor="middle">React 🟢</text>
  <rect x="610" y="400" width="72" height="20" rx="10" fill="#4f46e520" stroke="#6366f155" stroke-width="1"/>
  <text x="646" y="414" font-family="monospace" font-size="8" fill="#a5b4fc" text-anchor="middle">JavaScript 🟡</text>
  <rect x="692" y="400" width="80" height="20" rx="10" fill="#7f1d1d20" stroke="#ef444455" stroke-width="1"/>
  <text x="732" y="414" font-family="monospace" font-size="8" fill="#fca5a5" text-anchor="middle">CSS ❓ +3</text>
  <!-- Next button -->
  <rect x="524" y="420" width="264" height="0" rx="10" fill="url(#card1)"/>
</svg>
